<svg width="46" height="26" viewBox="0 0 46 26" fill="none" xmlns="http://www.w3.org/2000/svg">
<path d="M31.334 0.5L37.584 8.83333H41.7506C44.0631 8.83333 45.9173 10.6875 45.9173 13V19.25H41.7506C41.7506 20.9076 41.0922 22.4973 39.9201 23.6694C38.748 24.8415 37.1583 25.5 35.5006 25.5C33.843 25.5 32.2533 24.8415 31.0812 23.6694C29.9091 22.4973 29.2506 20.9076 29.2506 19.25H16.7507C16.7507 20.9076 16.0922 22.4973 14.9201 23.6694C13.748 24.8415 12.1583 25.5 10.5007 25.5C8.84305 25.5 7.25334 24.8415 6.08123 23.6694C4.90913 22.4973 4.25065 20.9076 4.25065 19.25H0.0839844V13C0.0839844 10.6875 1.93815 8.83333 4.25065 8.83333L10.5007 0.5H31.334ZM19.8757 3.625H12.0632L8.12565 8.83333H19.8757V3.625ZM23.0007 3.625V8.83333H33.709L29.7715 3.625H23.0007ZM10.5007 16.125C9.67185 16.125 8.87699 16.4542 8.29094 17.0403C7.70489 17.6263 7.37565 18.4212 7.37565 19.25C7.37565 20.0788 7.70489 20.8737 8.29094 21.4597C8.87699 22.0458 9.67185 22.375 10.5007 22.375C11.3295 22.375 12.1243 22.0458 12.7104 21.4597C13.2964 20.8737 13.6257 20.0788 13.6257 19.25C13.6257 18.4212 13.2964 17.6263 12.7104 17.0403C12.1243 16.4542 11.3295 16.125 10.5007 16.125ZM35.5006 16.125C34.6718 16.125 33.877 16.4542 33.2909 17.0403C32.7049 17.6263 32.3756 18.4212 32.3756 19.25C32.3756 20.0788 32.7049 20.8737 33.2909 21.4597C33.877 22.0458 34.6718 22.375 35.5006 22.375C36.3295 22.375 37.1243 22.0458 37.7104 21.4597C38.2964 20.8737 38.6256 20.0788 38.6256 19.25C38.6256 18.4212 38.2964 17.6263 37.7104 17.0403C37.1243 16.4542 36.3295 16.125 35.5006 16.125Z" fill="white"/>
</svg>
