<svg width="63" height="44" viewBox="0 0 63 44" fill="none" xmlns="http://www.w3.org/2000/svg">
<path d="M27.3438 0.125C26.0449 0.125 25 1.16992 25 2.46875C25 3.76758 26.0449 4.8125 27.3438 4.8125H32.9785L34.5801 7.77148L25 15.75L20.5762 11.3262C19.4043 10.1543 17.8125 9.5 16.1523 9.5H6.25C4.52148 9.5 3.125 10.8965 3.125 12.625V15.75H12.5C21.1328 15.75 28.125 22.7422 28.125 31.375C28.125 32.4492 28.0176 33.4941 27.8125 34.5H34.6875C34.4824 33.4941 34.375 32.4492 34.375 31.375C34.375 26.2773 36.8164 21.7461 40.5957 18.8945L42.0996 21.6875C39.2969 23.9824 37.5 27.4688 37.5 31.375C37.5 38.2793 43.0957 43.875 50 43.875C56.9043 43.875 62.5 38.2793 62.5 31.375C62.5 24.4707 56.9043 18.875 50 18.875C48.6816 18.875 47.4121 19.0801 46.2207 19.4609L40.8398 9.5H46.875C48.6035 9.5 50 8.10352 50 6.375V3.25C50 1.52148 48.6035 0.125 46.875 0.125H44.8828C44.1504 0.125 43.4473 0.378906 42.8809 0.847656L38.252 4.70508L36.8848 2.16602C36.2012 0.90625 34.8828 0.115234 33.4473 0.115234H27.3438V0.125ZM45.1855 27.3906L47.9395 32.4883C48.5547 33.6309 49.9805 34.0508 51.1133 33.4355C52.2461 32.8203 52.6758 31.3945 52.0605 30.2617L49.3066 25.1641C49.5312 25.1348 49.7656 25.125 50 25.125C53.4473 25.125 56.25 27.9277 56.25 31.375C56.25 34.8223 53.4473 37.625 50 37.625C46.5527 37.625 43.75 34.8223 43.75 31.375C43.75 29.8613 44.2871 28.4746 45.1855 27.3906ZM18.291 33.7188C17.3633 36.0137 15.1172 37.625 12.5 37.625C9.05273 37.625 6.25 34.8223 6.25 31.375C6.25 27.9277 9.05273 25.125 12.5 25.125C15.127 25.125 17.373 26.7363 18.291 29.0313H24.7754C23.6816 23.25 18.6035 18.875 12.5 18.875C5.5957 18.875 0 24.4707 0 31.375C0 38.2793 5.5957 43.875 12.5 43.875C18.6035 43.875 23.6816 39.5 24.7852 33.7188H18.291ZM12.5 34.5C13.3288 34.5 14.1237 34.1708 14.7097 33.5847C15.2958 32.9987 15.625 32.2038 15.625 31.375C15.625 30.5462 15.2958 29.7513 14.7097 29.1653C14.1237 28.5792 13.3288 28.25 12.5 28.25C11.6712 28.25 10.8763 28.5792 10.2903 29.1653C9.70424 29.7513 9.375 30.5462 9.375 31.375C9.375 32.2038 9.70424 32.9987 10.2903 33.5847C10.8763 34.1708 11.6712 34.5 12.5 34.5Z" fill="white"/>
</svg>
