<svg width="36" height="25" viewBox="0 0 36 25" fill="none" xmlns="http://www.w3.org/2000/svg">
<path d="M22.3179 3.27926L18.7441 2.6509L19.053 0.892558L22.7446 1.54145C23.0202 1.07196 23.4138 0.682702 23.8864 0.412307C24.3589 0.141911 24.8939 -0.00022566 25.4383 2.68919e-07H28.9059C29.2094 2.68919e-07 29.4548 0.245453 29.4548 0.548923V5.69898C29.4548 6.00245 29.2085 6.24791 28.9059 6.24791H25.4383C24.6366 6.24798 23.8656 5.93985 23.2848 5.38726C22.704 4.83468 22.3578 4.07995 22.3179 3.27926Z" fill="white"/>
<path fill-rule="evenodd" clip-rule="evenodd" d="M23.925 7.64282L23.0949 14.2808H16.9586V13.1383C16.9586 12.7831 16.6212 12.4957 16.2053 12.4957H9.00234C4.03079 12.4957 0 15.932 0 20.1717C0 20.368 0.187437 20.5287 0.419502 20.5287H4.48243C4.59198 21.7498 5.1545 22.8857 6.05933 23.713C6.96417 24.5403 8.14583 24.9991 9.37186 24.9991C10.5979 24.9991 11.7795 24.5403 12.6844 23.713C13.5892 22.8857 14.1517 21.7498 14.2613 20.5287H15.0735C15.1074 20.5287 15.1405 20.5287 15.1735 20.5269V20.5287H24.4257C24.606 21.1356 25.1246 21.5239 25.6914 21.6444C26.0699 22.7789 26.8496 23.7363 27.884 24.3366C28.9184 24.9369 30.1365 25.139 31.3093 24.9048C32.4822 24.6706 33.5292 24.0163 34.2538 23.0648C34.9784 22.1132 35.3306 20.9299 35.2444 19.737C35.6416 19.3228 35.8416 18.715 35.597 18.0572C35.3162 17.3033 34.8817 16.616 34.3211 16.039C33.7605 15.462 33.086 15.0078 32.3405 14.7054C31.595 14.403 30.7948 14.2589 29.9906 14.2823C29.1865 14.3057 28.396 14.4961 27.6693 14.8413V8.03287H25.4379C24.9086 8.03372 24.3879 7.89947 23.925 7.64282ZM11.5586 20.5287H7.18509C7.28752 21.0331 7.56118 21.4866 7.95972 21.8123C8.35825 22.1381 8.85714 22.316 9.37186 22.316C9.88658 22.316 10.3855 22.1381 10.784 21.8123C11.1825 21.4866 11.4562 21.0331 11.5586 20.5287ZM28.4672 21.2856C28.7049 21.6564 29.0469 21.9487 29.4503 22.1256C29.8537 22.3025 30.3004 22.3561 30.7342 22.2797C31.168 22.2033 31.5694 22.0002 31.8881 21.6961C32.2067 21.392 32.4283 21.0004 32.5248 20.5706L28.4672 21.2856Z" fill="white"/>
<path d="M4.61463 8.9255C4.63197 8.87677 4.65072 8.82855 4.67086 8.7809ZM4.61463 8.9255C4.51644 9.20487 4.46289 9.50566 4.46289 9.81805V10.7106H17.8513V9.81805C17.8513 9.51726 17.8022 9.22897 17.7102 8.95941L17.6995 8.9255C17.5148 8.40328 17.1726 7.9512 16.7203 7.6315C16.2679 7.3118 15.7275 7.14022 15.1736 7.14038H7.14056C6.61415 7.14026 6.09938 7.2953 5.66059 7.58613C5.22181 7.87696 4.87848 8.29067 4.67353 8.77555" fill="white"/>
</svg>
