<svg width="50" height="50" viewBox="0 0 50 50" fill="none" xmlns="http://www.w3.org/2000/svg">
<path fill-rule="evenodd" clip-rule="evenodd" d="M32.19 18.1324C31.5347 17.7295 31.0039 17.153 30.6564 16.4667C30.3089 15.7805 30.1583 15.0115 30.2212 14.2449L26.041 13.5105L26.4014 11.4584L30.9202 12.2522C31.3015 11.6866 31.8159 11.2235 32.4182 10.9035C33.0206 10.5834 33.6923 10.4163 34.3743 10.4167H37.9004C38.2546 10.4167 38.541 10.7032 38.541 11.0574V18.1095C38.541 18.4636 38.2535 18.7501 37.9004 18.7501H37.4993V27.3438C39.1386 26.8741 40.8947 27.0403 42.4168 27.8091C43.9389 28.5778 45.1149 29.8926 45.7098 31.4907C46.0348 32.3657 45.6868 33.1647 45.09 33.6407C45.1414 35.0236 44.6907 36.3785 43.821 37.455C42.9513 38.5314 41.7214 39.2568 40.3585 39.497C38.9956 39.7373 37.5918 39.4762 36.4065 38.762C35.2211 38.0478 34.3343 36.9287 33.9098 35.6115C33.3462 35.422 32.8566 34.997 32.6712 34.3751H20.8108C20.683 35.8002 20.0265 37.1259 18.9705 38.0914C17.9145 39.0569 16.5354 39.5923 15.1046 39.5923C13.6737 39.5923 12.2946 39.0569 11.2386 38.0914C10.1827 37.1259 9.52616 35.8002 9.39831 34.3751H4.6556C4.59308 34.3769 4.53081 34.3664 4.47237 34.3441C4.41392 34.3218 4.36043 34.2882 4.31497 34.2453C4.2695 34.2023 4.23294 34.1508 4.20738 34.0938C4.18183 34.0367 4.16777 33.9751 4.16602 33.9126C4.16602 30.2292 6.27747 27.0136 9.41602 25.2917C9.38838 25.197 9.37435 25.0988 9.37435 25.0001V21.8751C9.37435 21.0463 9.70359 20.2514 10.2896 19.6654C10.8757 19.0793 11.6705 18.7501 12.4993 18.7501H21.8743C22.7031 18.7501 23.498 19.0793 24.0841 19.6654C24.6701 20.2514 24.9993 21.0463 24.9993 21.8751V25.0001C24.9993 25.2763 24.8896 25.5413 24.6943 25.7367C24.4989 25.932 24.2339 26.0417 23.9577 26.0417V27.0834H30.4577L32.19 18.1324ZM32.291 14.5834C32.291 14.0309 32.5105 13.501 32.9012 13.1103C33.2919 12.7196 33.8218 12.5001 34.3743 12.5001H36.4577V16.6667H34.3743C33.8218 16.6667 33.2919 16.4473 32.9012 16.0566C32.5105 15.6659 32.291 15.1359 32.291 14.5834ZM30.0535 29.1667H23.9577V32.2917H29.4493L30.0535 29.1667ZM31.5712 32.2917H32.7754C33.1517 30.7031 34.0895 29.3039 35.416 28.3522V18.7501H34.1921L31.5712 32.2917ZM36.1025 35.4855C36.4539 36.1881 37.0229 36.7584 37.7246 37.1116C38.4264 37.4647 39.2234 37.5818 39.9971 37.4454C40.7708 37.309 41.4797 36.9265 42.0184 36.3547C42.5571 35.7829 42.8968 35.0524 42.9868 34.272L36.1025 35.4855ZM11.4577 21.8751C11.4577 21.5988 11.5674 21.3339 11.7628 21.1385C11.9581 20.9432 12.2231 20.8334 12.4993 20.8334H21.8743C22.1506 20.8334 22.4156 20.9432 22.6109 21.1385C22.8063 21.3339 22.916 21.5988 22.916 21.8751V23.9584H11.4577V21.8751ZM6.4306 32.2917C7.22227 28.7865 10.5337 26.0417 14.6723 26.0417H21.8743V32.2584C21.8406 32.2821 21.7999 32.2939 21.7587 32.2917H6.4306ZM18.3525 34.399C18.4837 34.4032 18.6014 34.4074 18.7066 34.4126C18.5738 35.2729 18.1375 36.0573 17.4766 36.6239C16.8158 37.1905 15.974 37.502 15.1035 37.502C14.233 37.502 13.3912 37.1905 12.7304 36.6239C12.0695 36.0573 11.6332 35.2729 11.5004 34.4126C11.6056 34.4074 11.7233 34.4022 11.8546 34.399C12.6212 34.3751 13.6556 34.3751 15.1035 34.3751C16.5504 34.3751 17.5858 34.3751 18.3535 34.399H18.3525ZM42.0525 30.0136C41.3662 29.533 40.5636 29.245 39.7283 29.1798C38.893 29.1146 38.0554 29.2744 37.3029 29.6428C36.5503 30.0111 35.9102 30.5744 35.4492 31.274C34.9882 31.9737 34.7231 32.7841 34.6816 33.6209L43.6837 32.0334C43.3412 31.2196 42.7757 30.5202 42.0525 30.0136Z" fill="#222222"/>
</svg>
