<svg width="50" height="50" viewBox="0 0 50 50" fill="none" xmlns="http://www.w3.org/2000/svg">
<path d="M25 5C23.7813 4.99886 22.6042 5.44284 21.6898 6.2485C20.7754 7.05417 20.1868 8.16605 20.0345 9.37517C19.8822 10.5843 20.1767 11.8074 20.8628 12.8147C21.5488 13.8219 22.5791 14.5439 23.76 14.845C23.7535 14.8964 23.7502 14.9482 23.75 15V23.75C23.75 24.0815 23.8817 24.3995 24.1161 24.6339C24.3505 24.8683 24.6685 25 25 25C25.3315 25 25.6495 24.8683 25.8839 24.6339C26.1183 24.3995 26.25 24.0815 26.25 23.75V15C26.2498 14.9482 26.2465 14.8964 26.24 14.845C27.4209 14.5439 28.4512 13.8219 29.1372 12.8147C29.8233 11.8074 30.1178 10.5843 29.9655 9.37517C29.8132 8.16605 29.2246 7.05417 28.3102 6.2485C27.3958 5.44284 26.2187 4.99886 25 5ZM22.5 10C22.5 9.33696 22.7634 8.70108 23.2322 8.23224C23.7011 7.76339 24.337 7.5 25 7.5C25.663 7.5 26.2989 7.76339 26.7678 8.23224C27.2366 8.70108 27.5 9.33696 27.5 10C27.5 10.663 27.2366 11.2989 26.7678 11.7678C26.2989 12.2366 25.663 12.5 25 12.5C24.337 12.5 23.7011 12.2366 23.2322 11.7678C22.7634 11.2989 22.5 10.663 22.5 10ZM10 10C9.33696 10 8.70107 10.2634 8.23223 10.7322C7.76339 11.2011 7.5 11.837 7.5 12.5V40C7.5 40.663 7.76339 41.2989 8.23223 41.7678C8.70107 42.2366 9.33696 42.5 10 42.5C10.663 42.5 11.2989 42.2366 11.7678 41.7678C12.2366 41.2989 12.5 40.663 12.5 40V30C12.5 29.6685 12.6317 29.3505 12.8661 29.1161C13.1005 28.8817 13.4185 28.75 13.75 28.75H21.25C21.5815 28.75 21.8995 28.8817 22.1339 29.1161C22.3683 29.3505 22.5 29.6685 22.5 30V40C22.5 40.663 22.7634 41.2989 23.2322 41.7678C23.7011 42.2366 24.337 42.5 25 42.5C25.663 42.5 26.2989 42.2366 26.7678 41.7678C27.2366 41.2989 27.5 40.663 27.5 40V31.25C27.5 30.9185 27.6317 30.6005 27.8661 30.3661C28.1005 30.1317 28.4185 30 28.75 30H41.25C41.5815 30 41.8995 29.8683 42.1339 29.6339C42.3683 29.3995 42.5 29.0815 42.5 28.75V12.5C42.5 11.837 42.2366 11.2011 41.7678 10.7322C41.2989 10.2634 40.663 10 40 10C39.337 10 38.7011 10.2634 38.2322 10.7322C37.7634 11.2011 37.5 11.837 37.5 12.5V22.5C37.5 22.8315 37.3683 23.1495 37.1339 23.3839C36.8995 23.6183 36.5815 23.75 36.25 23.75H30C29.6685 23.75 29.3505 23.6183 29.1161 23.3839C28.8817 23.1495 28.75 22.8315 28.75 22.5C28.75 22.1685 28.8817 21.8505 29.1161 21.6161C29.3505 21.3817 29.6685 21.25 30 21.25H35V12.5C35 11.1739 35.5268 9.90215 36.4645 8.96447C37.4021 8.02679 38.6739 7.5 40 7.5C41.3261 7.5 42.5979 8.02679 43.5355 8.96447C44.4732 9.90215 45 11.1739 45 12.5V28.75C45 29.7446 44.6049 30.6984 43.9016 31.4017C43.1984 32.1049 42.2446 32.5 41.25 32.5H30V40C30 41.3261 29.4732 42.5979 28.5355 43.5355C27.5979 44.4732 26.3261 45 25 45C23.6739 45 22.4021 44.4732 21.4645 43.5355C20.5268 42.5979 20 41.3261 20 40V31.25H15V40C15 41.3261 14.4732 42.5979 13.5355 43.5355C12.5979 44.4732 11.3261 45 10 45C8.67392 45 7.40215 44.4732 6.46447 43.5355C5.52678 42.5979 5 41.3261 5 40V12.5C5 11.1739 5.52678 9.90215 6.46447 8.96447C7.40215 8.02679 8.67392 7.5 10 7.5C11.3261 7.5 12.5979 8.02679 13.5355 8.96447C14.4732 9.90215 15 11.1739 15 12.5V21.25H20C20.3315 21.25 20.6495 21.3817 20.8839 21.6161C21.1183 21.8505 21.25 22.1685 21.25 22.5C21.25 22.8315 21.1183 23.1495 20.8839 23.3839C20.6495 23.6183 20.3315 23.75 20 23.75H13.75C13.4185 23.75 13.1005 23.6183 12.8661 23.3839C12.6317 23.1495 12.5 22.8315 12.5 22.5V12.5C12.5 11.837 12.2366 11.2011 11.7678 10.7322C11.2989 10.2634 10.663 10 10 10Z" fill="#222222"/>
</svg>
